<?xml version="1.0" encoding="utf-8"?>
<!-- Generator: Adobe Illustrator 19.2.1, SVG Export Plug-In . SVG Version: 6.00 Build 0)  -->
<svg version="1.1" id="Icon_x5F_PDF" xmlns="http://www.w3.org/2000/svg"  x="0px"
	 y="0px" viewBox="0 0 1000 1000" style="enable-background:new 0 0 1000 1000;" xml:space="preserve">
<style type="text/css">
	.st0{fill:#AFA591;}
</style>
<path class="st0" d="M805.5,91c-10.1-6.6-22.8-7.5-33.8-2.5l-416.8,188l-77.8-40l22-13.2L628,67.5c17.7-8.3,25.3-29.5,16.9-47.3
	C636.5,2.6,615.3-5,597.6,3.4l-399,188.9c-12.4,5.9-20.3,18.3-20.3,32v670.1c0,13.8,7.9,26.3,20.4,32.1l149.3,70.1
	c4.8,2.2,9.9,3.4,15.1,3.4c4.8,0,9.7-1,14.3-3l423.2-185.9c12.9-5.6,21.2-18.4,21.2-32.5V120.8C821.7,108.7,815.6,97.5,805.5,91z"/>
</svg>
