<?xml version="1.0" encoding="utf-8"?>
<!-- Generator: Adobe Illustrator 22.0.1, SVG Export Plug-In . SVG Version: 6.00 Build 0)  -->
<svg version="1.1" id="Icon_Article" xmlns="http://www.w3.org/2000/svg" xmlns:xlink="http://www.w3.org/1999/xlink" x="0px"
	 y="0px" viewBox="0 0 1000 1000" style="enable-background:new 0 0 1000 1000;" xml:space="preserve">
<style type="text/css">
	.st0{fill:#AFA591;}
</style>
<path class="st0" d="M706.3,122.2H152v755.5h554.3c78.3,0,141.8-63.5,141.8-141.8V264C848,185.7,784.6,122.2,706.3,122.2z M785,736
	c0,43.4-35.3,78.8-78.8,78.8H309.5V185.2h396.7c43.4,0,78.8,35.3,78.8,78.8V736z"/>
<path class="st0" d="M439.4,397.4h199.5c13,0,23.6-10.6,23.6-23.6s-10.6-23.6-23.6-23.6H439.4c-13,0-23.6,10.6-23.6,23.6
	S426.4,397.4,439.4,397.4z"/>
<path class="st0" d="M679.9,476.4H439.4c-13,0-23.6,10.6-23.6,23.6s10.6,23.6,23.6,23.6h240.4c13,0,23.6-10.6,23.6-23.6
	S692.9,476.4,679.9,476.4z"/>
<path class="st0" d="M614.3,602.8H439.4c-13,0-23.6,10.6-23.6,23.6s10.6,23.6,23.6,23.6h174.9c13,0,23.6-10.6,23.6-23.6
	S627.4,602.8,614.3,602.8z"/>
</svg>
