<?xml version="1.0" encoding="utf-8"?>
<!-- Generator: Adobe Illustrator 22.0.1, SVG Export Plug-In . SVG Version: 6.00 Build 0)  -->
<svg version="1.1" id="Icon_PDF" xmlns="http://www.w3.org/2000/svg" xmlns:xlink="http://www.w3.org/1999/xlink" x="0px" y="0px"
	 viewBox="0 0 716.8 900" style="enable-background:new 0 0 716.8 900;" xml:space="preserve">
<style type="text/css">
	.st0{fill:#474B56;}
</style>
<title>icon_topic</title>
<path class="st0" d="M623.9,184.9l-70.5-68c-9-8.7-23.3-8.7-32.4,0l-71.9,69.3l-74.6-71.9c-9-8.7-23.3-8.7-32.4,0l-74.6,71.9
	l-74.6-71.9c-9-8.7-23.4-8.7-32.4,0L93,179.4c-4.5,4.4-7.1,10.5-7.1,16.8v502.1c0,6.3,2.6,12.4,7.1,16.7l70.5,68
	c9,8.7,23.3,8.7,32.4,0l71.9-69.3l74.6,71.9c9,8.7,23.3,8.7,32.4,0l74.6-71.9l74.6,71.9c9,8.7,23.4,8.7,32.4,0l67.5-65.1
	c4.5-4.4,7.1-10.4,7.1-16.7V201.6C631,195.3,628.4,189.3,623.9,184.9z M211.3,318.8H341c5.1,0,9.3,4.2,9.3,9.3s-4.2,9.3-9.3,9.3
	c0,0,0,0,0,0H211.3c-5.1,0-9.3-4.2-9.3-9.3C201.9,323,206.1,318.8,211.3,318.8C211.3,318.8,211.3,318.8,211.3,318.8z M494.8,567.1
	H211.3c-5.1,0-9.3-4.2-9.3-9.3c0-5.1,4.2-9.3,9.3-9.3h283.5c5.1,0,9.3,4.2,9.3,9.3C504.1,563,500,567.1,494.8,567.1z M494.8,490
	H211.3c-5.1,0-9.3-4.2-9.3-9.3c0-5.1,4.2-9.3,9.3-9.3h283.5c5.1,0,9.3,4.2,9.3,9.3C504.2,485.8,500,489.9,494.8,490
	C494.8,490,494.8,490,494.8,490L494.8,490z M494.8,412.8H211.3c-5.2,0-9.3-4.2-9.3-9.3c0-5.2,4.2-9.3,9.3-9.3h283.5
	c5.2,0,9.3,4.2,9.4,9.3C504.2,408.6,500,412.8,494.8,412.8C494.8,412.8,494.8,412.8,494.8,412.8L494.8,412.8z"/>
</svg>
